<?xml version="1.0" encoding="UTF-8"?>
<svg width="513px" height="513px" viewBox="0 0 513 513" version="1.1" xmlns="http://www.w3.org/2000/svg" xmlns:xlink="http://www.w3.org/1999/xlink">
    <!-- Generator: Sketch 58 (84663) - https://sketch.com -->
    <title>Combined Shape</title>
    <desc>Created with Sketch.</desc>
    <defs>
        <linearGradient x1="92.9988661%" y1="98.8852618%" x2="11.8718899%" y2="2.18831831%" id="linearGradient-1">
            <stop stop-color="#43C1FA" offset="0%"></stop>
            <stop stop-color="#18168F" offset="100%"></stop>
        </linearGradient>
        <path d="M167.317333,284.992 C171.188152,283.116937 175.432281,282.139767 179.733333,282.133333 C188.215282,282.090974 196.505434,284.655767 203.4816,289.480533 C209.831739,285.575834 216.992636,283.179137 224.413867,282.474667 C231.846203,281.618496 238.831737,286.185824 241.028267,293.3376 C243.197615,300.525703 243.767543,308.098348 242.701886,315.524554 L242.589867,316.266667 L376,316.266667 C403.982628,316.294608 426.713111,338.745544 427.192307,366.620333 L427.2,367.466667 L427.2,418.666667 C427.2,423.379496 423.379496,427.2 418.666667,427.2 C414.039525,427.2 410.272556,423.517161 410.137105,418.922828 L410.133333,418.666667 L410.133333,367.466667 C410.080816,352.360004 400.087693,339.091415 385.582933,334.869333 C390.347133,341.781347 392.948007,349.948959 393.062706,358.334043 L393.066667,358.933333 L393.066667,495.466667 L504,495.466667 L504,495.424 C508.712829,495.424 512.533333,499.244504 512.533333,503.957333 C512.533333,508.584475 508.850494,512.351444 504.256161,512.486895 L504,512.490667 L9.06666667,512.490667 C4.3538368,512.490667 0.533333333,508.670163 0.533333333,503.957333 C0.533333333,499.330192 4.21617238,495.563222 8.81050577,495.427771 L9.06666667,495.424 L42.2186667,495.424 C41.4147504,491.356872 39.627651,487.548299 37.0133333,484.330667 C33.8228489,480.920271 33.936481,475.587137 37.2693333,472.315733 C40.5901839,469.049839 45.9232643,469.072695 49.216,472.366933 C50.4472156,473.648625 51.5556995,475.042801 52.5269333,476.5312 C55.4603272,471.933101 58.8946553,467.674534 62.7669333,463.8336 C66.1152332,460.599704 71.4375235,460.645953 74.7291185,463.937548 C78.0207138,467.229143 78.0669628,472.551433 74.8330667,475.899733 C69.3524899,481.203802 65.1115665,487.649312 62.409236,494.774978 L62.1525333,495.466667 L205.358933,495.466667 L205.358933,452.8 C186.696127,452.8 171.531597,437.822098 171.230173,419.231124 L171.2256,418.666667 L171.2256,390.958933 C167.562534,390.896974 163.926179,390.32251 160.4224,389.252267 C157.164006,392.325708 153.57187,395.024818 149.713067,397.2992 C142.295187,401.420787 132.996227,399.46048 127.866263,392.747142 L127.645867,392.452267 L118.1568,380.283733 C113.138277,373.541402 113.72643,364.159825 119.547733,358.097067 C120.290133,357.3376 121.4336,356.305067 122.798933,355.101867 C129.867942,349.816044 135.145632,342.489229 137.92,334.109867 C137.954133,333.905067 138.1248,332.932267 138.466133,331.4048 C129.723167,322.640237 123.683578,311.547418 121.066667,299.447467 C120.201288,295.249135 121.100743,290.879678 123.553957,287.36448 C126.007171,283.849283 129.798176,281.497804 134.037333,280.861867 C145.278933,278.444601 157.007632,279.900163 167.317333,284.992 Z M276.782933,451.127467 C270.952157,451.842259 264.667844,452.368078 257.82328,452.619551 L256.533333,452.663467 L256.533333,495.466667 L341.866667,495.466667 L341.866667,473.723733 C335.180627,476.816497 327.900026,478.412405 320.533333,478.4 C301.81542,478.849745 284.620898,468.131256 276.782933,451.127467 Z M179.733333,299.199945 C164.689067,299.199945 156.343467,327.5904 154.577067,337.531733 C151.120644,349.550594 143.952281,360.168732 134.097067,367.867733 C133.2096,368.649007 132.443496,369.322403 131.858688,369.899907 L131.648,370.112 L141.282133,382.1952 C145.441042,379.86456 149.18874,376.866401 152.375467,373.320533 C155.050585,370.556651 159.244139,369.924123 162.615467,371.776 C167.51351,374.000973 173.009787,374.544 178.248533,373.320533 C180.731878,372.881737 183.282135,373.563834 185.214851,375.183759 C187.070257,376.738887 188.174104,379.005409 188.261107,381.415381 L188.266667,381.717333 L188.266667,418.666667 C188.266667,427.983985 195.733028,435.557442 205.009027,435.730314 L205.333333,435.733333 L205.333333,427.2 C205.333333,422.487171 209.153837,418.666667 213.866667,418.666667 C218.493808,418.666667 222.260778,422.349506 222.396229,426.943839 L222.4,427.2 L222.4,495.466667 L239.466667,495.466667 L239.466667,427.2 C239.466667,422.487171 243.287171,418.666667 248,418.666667 C252.627142,418.666667 256.394111,422.349506 256.529562,426.943839 L256.533333,427.2 L256.533333,435.579733 C277.401438,435.96325 298.036331,431.141795 316.573867,421.550933 L316.433541,420.141353 C316.365274,419.434983 316.305541,418.725057 316.279941,418.006242 L316.266667,417.284267 L316.266667,401.6 C316.266667,396.887171 320.087171,393.066667 324.8,393.066667 C329.427142,393.066667 333.194111,396.749506 333.329562,401.343839 L333.333333,401.6 L333.333333,417.284267 C333.325135,429.729135 341.288538,440.78025 353.096533,444.7104 C356.492704,445.84155 358.8123,448.967032 358.928741,452.525448 L358.933333,452.8 L358.933333,495.466667 L376,495.466667 L376,358.933333 C376,344.936229 364.766573,333.562831 350.823343,333.336763 L350.4,333.333333 L333.333333,333.333333 L333.333333,350.843733 C333.340599,361.205681 327.644769,370.730768 318.512961,375.627716 C309.521643,380.449326 298.636072,380.013609 290.068173,374.520398 L289.668267,374.2592 L286.818133,372.347733 C282.931242,369.779358 278.173751,368.902266 273.636384,369.904749 L273.224533,370.001067 L261.013333,373.047467 C248.962615,376.057134 236.229154,372.265746 227.78745,363.15446 C219.458302,354.164658 216.611376,341.403468 220.301228,329.743551 L220.4544,329.271467 L222.843733,322.146133 C222.877867,322.026667 223.0144,321.949867 223.0144,321.838933 C223.092698,321.549585 223.186704,321.264719 223.296,320.9856 C226.417993,314.290317 227.041525,306.698976 225.053867,299.584 C216.665442,300.195139 209.031767,304.653105 204.3776,311.658667 C202.167008,315.780517 197.063574,317.374154 192.900267,315.242667 C188.759891,313.131734 187.092408,308.079796 189.162667,303.918933 C189.239467,303.765333 189.76,302.8608 190.545067,301.674667 C187.176207,300.038407 183.47853,299.192055 179.733333,299.199945 Z M138.443627,428.047707 C142.618142,429.886319 144.594879,434.671658 142.975304,438.90318 L142.877867,439.146667 L127.816533,473.28 C126.459955,476.388313 123.391447,478.398252 120,478.4 C118.82409,478.398907 117.661411,478.151838 116.586667,477.674667 C114.506621,476.765626 112.874497,475.065276 112.051354,472.949766 C111.267408,470.934995 111.278772,468.701822 112.075185,466.700532 L112.200533,466.402133 L127.261867,432.2688 C129.216893,428.050635 134.188832,426.173738 138.443627,428.047707 Z M321.489067,438.3616 C312.906052,442.736771 303.79799,445.994567 294.3872,448.055467 C300.298766,456.615449 310.134138,461.610174 320.533333,461.333333 C326.750652,461.367348 332.847688,459.620262 338.103467,456.298667 C331.040295,451.938035 325.296957,445.73747 321.489067,438.3616 Z M446.491755,379.516279 L446.647467,379.7376 L482.820267,433.045333 C485.466521,436.9452 484.450266,442.251879 480.5504,444.898133 C476.725531,447.493498 471.547437,446.565865 468.853191,442.850054 L468.6976,442.628267 L432.533333,389.329067 C431.262513,387.456298 430.78772,385.155394 431.213404,382.932549 C431.639089,380.709705 432.930383,378.747014 434.8032,377.476267 C438.624264,374.884856 443.795635,375.808321 446.491755,379.516279 Z M78.2002816,377.581803 C81.9811523,380.151149 83.0538412,385.229397 80.679911,389.098407 L80.5333333,389.329067 L44.3690667,442.628267 C41.7228127,446.528133 36.4161334,447.544387 32.5162667,444.898133 C28.6913974,442.302769 27.6402991,437.148319 30.0977894,433.271858 L30.2464,433.045333 L66.4192,379.7376 C69.0977397,375.921035 74.3437929,374.96107 78.2002816,377.581803 Z M256.5248,0.435800661 C309.261192,0.435800661 353.262524,40.4952597 358.355734,92.8109531 L358.498133,94.4 L401.6,94.4 C415.738489,94.4 427.199999,105.861511 427.199999,120 C427.199999,133.997104 415.966573,145.370502 402.023343,145.59657 L401.6,145.6 L381.777067,145.6 L371.153067,172.1728 C368.588136,178.583341 363.5304,183.669611 357.149728,186.274199 L356.731733,186.440533 L511.048533,413.870933 C512.823775,416.483684 513.010479,419.863368 511.533835,422.655764 C510.05719,425.448159 507.158787,427.196409 504,427.2 C501.262565,427.207829 498.693967,425.902435 497.085913,423.70161 L496.917333,423.4624 L337.344,188.266667 L315.566933,188.266667 L357.380267,248.2048 C359.125629,250.704707 359.404725,253.945854 358.112423,256.707336 C356.820122,259.468816 354.152753,261.331094 351.11509,261.592669 C348.175415,261.845805 345.321151,260.562626 343.558218,258.213876 L343.3856,257.975467 L294.7456,188.266667 L278.404267,188.266667 L300.386133,235.8912 C301.333878,237.947218 301.425756,240.295584 300.641542,242.419364 C299.857328,244.543143 298.261305,246.268246 296.2048,247.214933 C295.087557,247.734371 293.869955,248.002359 292.637867,248 C289.404097,248.003277 286.455514,246.179538 285.008448,243.306214 L284.881067,243.042133 L259.605333,188.266667 L253.563733,188.266667 L225.693867,251.464533 C224.503628,254.313483 221.867264,256.297265 218.80011,256.651871 C215.732955,257.006478 212.713485,255.67659 210.904577,253.174385 C209.155966,250.755586 208.802247,247.606074 209.953408,244.868362 L210.077867,244.586667 L234.909867,188.266667 L218.321067,188.266667 L169.681067,257.975467 C166.982972,261.839987 161.662921,262.785562 157.7984,260.087467 C154.008197,257.441258 153.025753,252.272968 155.534778,248.429339 L155.6864,248.2048 L197.499733,188.266667 L175.722667,188.266667 L16.1237333,423.4624 C14.4315337,426.035066 11.4845286,427.49649 8.41238912,427.286467 C5.34024977,427.076442 2.61955098,425.227552 1.29321438,422.448527 C0.0110889188,419.762136 0.224181261,416.609429 1.8376933,414.125463 L2.0096,413.870933 L156.334933,186.440533 C149.899505,183.945431 144.759965,178.945971 142.084576,172.597279 L141.9136,172.181333 L131.2896,145.6 L111.466667,145.6 C97.3281775,145.6 85.8666675,134.138489 85.8666675,120 C85.8666675,106.002896 97.1000934,94.6294979 111.043324,94.4034297 L111.466667,94.4 L154.551467,94.4 C158.899052,41.308629 203.255718,0.435800661 256.5248,0.435800661 Z M316.266667,333.333333 L237.077333,333.333333 L236.650667,334.613333 C234.689492,340.494118 236.088741,346.9763 240.301117,351.524458 C244.427525,355.979796 250.611011,357.885637 256.514611,356.546589 L256.8832,356.458667 L269.085867,353.412267 C278.242153,351.127611 287.92743,352.731259 295.851721,357.827423 L296.290133,358.114133 L299.140267,360.0256 C302.525266,362.26765 306.868122,362.469477 310.446474,360.551038 C313.930659,358.683085 316.141841,355.098895 316.261559,351.163557 L316.266667,350.843733 L316.266667,333.333333 Z M138.0992,297.493333 C139.415989,302.72681 141.618037,307.696568 144.610133,312.187733 C146.757595,307.067498 149.46795,302.202025 152.6912,297.681067 C147.875155,296.770124 142.937087,296.706593 138.0992,297.493333 Z M304.157867,264.426667 C308.43489,262.457661 313.498497,264.32501 315.473067,268.599467 L315.473067,268.599467 L324.0064,287.0912 C325.225058,289.732066 325.014712,292.811779 323.448303,295.262425 C321.881893,297.71307 319.175153,299.197132 316.266667,299.2 C312.937992,299.2 309.913115,297.264525 308.5184,294.242133 L308.5184,294.242133 L299.985067,275.7504 C299.036765,273.695436 298.943648,271.347923 299.726203,269.224303 C300.508758,267.100683 302.102879,265.374917 304.157867,264.426667 Z M363.396267,145.6 L149.6704,145.6 L157.768533,165.841067 C159.029503,168.987501 162.028144,171.080451 165.397765,171.195091 L165.687467,171.200051 L347.3792,171.200051 C350.777827,171.211756 353.845332,169.195172 355.190088,166.093498 L355.298133,165.832533 L363.396267,145.6 Z M401.6,111.466667 L111.466667,111.466667 C106.753837,111.466667 102.933333,115.287171 102.933333,120 C102.933333,124.627142 106.616173,128.394111 111.210506,128.529562 L111.466667,128.533333 L401.6,128.533333 C406.312829,128.533333 410.133333,124.712829 410.133333,120 C410.133333,115.287171 406.312829,111.466667 401.6,111.466667 Z M256.533333,17.6 C213.170191,17.6546844 176.800493,50.1634835 171.777783,93.0958513 L171.6352,94.4 L222.4,94.4 L222.4,68.8 C222.4,49.9486805 237.682014,34.6666667 256.533333,34.6666667 C275.19614,34.6666667 290.360669,49.6445685 290.662094,68.2355429 L290.666667,68.8 L290.666667,94.4 L341.431467,94.4 C337.000201,50.8235383 300.334487,17.6552368 256.533333,17.6 Z M256.533333,51.7333333 C247.216015,51.7333333 239.642558,59.1996944 239.469686,68.4756935 L239.466667,68.8 L239.466667,94.4 L273.6,94.4 L273.6,68.8 C273.6,59.3743403 265.958993,51.7333333 256.533333,51.7333333 Z" id="path-2"></path>
    </defs>
    <g id="Page-1" stroke="none" stroke-width="1" fill="none" fill-rule="evenodd">
        <g id="ufo" transform="translate(0.466667, 0.466667)" fill-rule="nonzero">
            <g id="Combined-Shape">
                <use fill="#000000" xlink:href="#path-2"></use>
                <use fill="url(#linearGradient-1)" xlink:href="#path-2"></use>
            </g>
        </g>
    </g>
</svg>