<?xml version="1.0" encoding="UTF-8"?>
<svg width="497px" height="498px" viewBox="0 0 497 498" version="1.1" xmlns="http://www.w3.org/2000/svg" xmlns:xlink="http://www.w3.org/1999/xlink">
    <!-- Generator: Sketch 58 (84663) - https://sketch.com -->
    <title>Combined Shape</title>
    <desc>Created with Sketch.</desc>
    <defs>
        <linearGradient x1="92.7695355%" y1="98.8885904%" x2="12.0752427%" y2="2.18506286%" id="linearGradient-1">
            <stop stop-color="#43C1FA" offset="0%"></stop>
            <stop stop-color="#18168F" offset="100%"></stop>
        </linearGradient>
        <path d="M496.664,481.328 L496.664,497.328 L480.664,497.328 L480.664,481.328 L496.664,481.328 Z M16.664,481.328 L16.664,497.328 L0.664,497.328 L0.664,481.328 L16.664,481.328 Z M232.664,369.328 L232.664,417.328 L224.664,417.328 C207.016,417.328 192.664,431.68 192.664,449.328 L192.664,449.328 L176.664,449.328 C176.664,439.592 179.696,430.6 184.704,423.032 C175.864,409.592 160.912,401.328 144.664,401.328 C123.696,401.328 105.968,414.64 99.44,433.592 C101.16,433.432 102.904,433.328 104.664,433.328 C119.296,433.328 133.136,438.936 143.632,449.104 L143.632,449.104 L132.496,460.6 C125,453.328 115.112,449.328 104.664,449.328 C85.344,449.328 69.192,463.096 65.472,481.328 L65.472,481.328 L431.856,481.328 C428.136,463.096 411.976,449.328 392.664,449.328 C382.848,449.328 373.4,452.92 366.08,459.448 L366.08,459.448 L355.44,447.496 C365.696,438.36 378.92,433.328 392.664,433.328 C394.424,433.328 396.168,433.432 397.888,433.592 C391.36,414.64 373.624,401.328 352.664,401.328 C326.192,401.328 304.664,422.856 304.664,449.328 C304.664,451.672 304.832,454.04 305.176,456.352 L305.176,456.352 L289.344,458.664 C288.888,455.592 288.664,452.448 288.664,449.328 C288.664,440.784 290.376,432.64 293.432,425.184 C287.664,420.224 280.384,417.328 272.664,417.328 L272.664,417.328 L264.664,417.328 L264.664,369.328 L280.664,369.328 L280.664,401.992 C288.256,403.272 295.336,406.472 301.464,411.088 C313.144,395.488 331.72,385.328 352.664,385.328 C384.192,385.328 410.44,407.8 415.68,438.336 C432.768,446.08 445.264,462.136 448.024,481.328 L448.024,481.328 L464.664,481.328 L464.664,497.328 L32.664,497.328 L32.664,481.328 L49.304,481.328 C52.072,462.136 64.56,446.08 81.648,438.336 C86.88,407.8 113.136,385.328 144.664,385.328 C165.048,385.328 183.96,395.016 195.944,411.064 C201.944,406.552 208.952,403.288 216.664,401.992 L216.664,401.992 L216.664,369.328 L232.664,369.328 Z M248.664,0 L252.784,2.472 C256.208,4.52 336.664,53.944 336.664,153.328 C336.664,182.669176 333.580571,210.62627 329.11743,235.759412 L328.848,237.264 L433.768,309.896 L422.912,353.328 L320.664,353.328 L320.664,337.328 L410.416,337.328 L415.56,316.76 L397.224,304.064 L392.424,323.272 L376.904,319.392 L383.168,294.336 L325.464,254.392 C313.9008,308.31136 297.358692,345.529816 295.981083,348.566461 L295.944,348.648 L293.816,353.336 L203.512,353.336 L201.384,348.648 C200.3148,346.30368 183.877632,309.600974 172.215903,256.02079 L171.864,254.392 L114.16,294.336 L120.424,319.392 L104.904,323.272 L100.104,304.064 L81.768,316.76 L86.912,337.328 L176.664,337.328 L176.664,353.328 L74.416,353.328 L63.56,309.896 L168.48,237.264 C163.872,211.744 160.664,183.256 160.664,153.328 C160.664,54.93784 239.518926,5.513476 244.418328,2.54765538 L244.544,2.472 L248.664,0 Z M316.936,208.752 C300.784,228.608 276.192,241.328 248.664,241.328 C221.136,241.328 196.544,228.608 180.392,208.752 C185.328533,247.0576 194.301843,280.653628 202.035782,304.52697 L202.296,305.328 L264.664,305.328 L264.664,321.328 L207.784,321.328 C210.250909,328.139152 212.364261,333.475893 213.81039,337.002677 L213.944,337.328 L283.376,337.328 C284.780121,333.914667 286.861267,328.680889 289.305773,321.962216 L289.536,321.328 L280.664,321.328 L280.664,305.328 L295.032,305.328 C302.824,281.408 311.944,247.488 316.936,208.752 Z M248.664,81.328 C208.968,81.328 176.664,113.632 176.664,153.328 C176.664,193.024 208.968,225.328 248.664,225.328 C288.36,225.328 320.664,193.024 320.664,153.328 C320.664,113.632 288.36,81.328 248.664,81.328 Z M256.664,97.328 L256.664,114.8 C265.829789,118.068421 272.486922,126.681371 272.660523,136.91769 L272.664,137.328 L256.664,137.328 C256.664,132.92 253.072,129.328 248.664,129.328 C244.256,129.328 240.664,132.92 240.664,137.328 C240.664,141.736 244.256,145.328 248.664,145.328 C261.896,145.328 272.664,156.096 272.664,169.328 C272.664,179.606947 266.12747,188.312141 257.029284,191.722422 L256.664,191.856 L256.664,209.328 L240.664,209.328 L240.664,191.856 C231.498211,188.587579 224.841078,179.974629 224.667477,169.73831 L224.664,169.328 L240.664,169.328 C240.664,173.736 244.256,177.328 248.664,177.328 C253.072,177.328 256.664,173.736 256.664,169.328 C256.664,164.92 253.072,161.328 248.664,161.328 C235.432,161.328 224.664,150.56 224.664,137.328 C224.664,127.049053 231.20053,118.343859 240.298716,114.933578 L240.664,114.8 L240.664,97.328 L256.664,97.328 Z M248.664,18.96 C238.136,26.424 209.936,48.992 192.112,86 C207.424,73.12 227.144,65.328 248.664,65.328 C270.184,65.328 289.904,73.12 305.216,86 C287.392,48.992 259.192,26.432 248.664,18.96 Z" id="path-2"></path>
    </defs>
    <g id="Page-1" stroke="none" stroke-width="1" fill="none" fill-rule="evenodd">
        <g id="rocket" fill-rule="nonzero">
            <g id="Combined-Shape">
                <use fill="#000000" xlink:href="#path-2"></use>
                <use fill="url(#linearGradient-1)" xlink:href="#path-2"></use>
            </g>
        </g>
    </g>
</svg>