<?xml version="1.0" encoding="UTF-8"?>
<svg width="496px" height="496px" viewBox="0 0 496 496" version="1.1" xmlns="http://www.w3.org/2000/svg" xmlns:xlink="http://www.w3.org/1999/xlink">
    <!-- Generator: Sketch 58 (84663) - https://sketch.com -->
    <title>Combined Shape</title>
    <desc>Created with Sketch.</desc>
    <defs>
        <linearGradient x1="92.9988661%" y1="98.8885904%" x2="11.8718899%" y2="2.18506286%" id="linearGradient-1">
            <stop stop-color="#43C1FA" offset="0%"></stop>
            <stop stop-color="#18168F" offset="100%"></stop>
        </linearGradient>
        <path d="M376,-3.55271368e-15 C442.168,-3.55271368e-15 496,53.832 496,120 C496,186.168 442.168,240 376,240 C365.580138,240 355.227396,238.605394 345.085787,235.866585 L344,235.568 L344,312 C344,325.09968 333.446283,335.784394 320.396212,335.996778 L320,336 L304,336 L304,365.768 L279.488,373.936 L271.304,464 L208,464 L208,496 L192,496 L192,464 L184,464 C144.70096,464 112.646819,432.34669 112.009666,393.188873 L112,392 L112,384 L128,384 L128,392 C128,422.56328 152.620112,447.496866 183.075347,447.992481 L184,448 L256.696,448 L264.504,362.072 L288,354.24 L288,329.76 C285.191652,327.22713 283.020098,324.079425 281.653368,320.491916 L281.472,320 L224,320 C204.8732,320 188.851357,306.505983 184.92332,288.545611 L184.808,288 L16,288 L16,312 C16,357.00144 38.15026,398.882242 75.3249041,424.306615 L76.456,425.072 L80,427.448 L80,496 L64,496 L64,435.912 C24.2416,407.65344 0.478432,362.286254 0.00714448,313.480016 L0,312 L0,280 C0,196.184 68.184,128 152,128 C200.85848,128 246.361098,151.396947 274.970241,190.801044 L275.832,192 L280.184,192 C264.608,171.272 256,145.992 256,120 C256,111.513739 256.951531,103.261701 258.637555,95.2718915 L258.872,94.184 L228.688,64 L191.36,64 C187.456,91.096 164.152,112 136,112 C105.12,112 80,86.88 80,56 C80,25.12 105.12,-3.55271368e-15 136,-3.55271368e-15 C163.87048,-3.55271368e-15 186.989435,20.4880104 191.237075,47.1889923 L191.36,48 L235.312,48 L264.16,76.848 C281.536,31.968 325.056,-3.55271368e-15 376,-3.55271368e-15 Z M400,288 C413.4244,288 424.818033,301.125499 432.123865,324.977918 L432.344,325.704 L417.016,330.296 C411.6,312.224 404.392,304 400,304 C390.448,304 376,335.904 376,384 C376,392.112 376.44,399.72 377.168,406.832 C384.28,407.56 391.888,408 400,408 C448.096,408 480,393.552 480,384 C480,379.65375 471.938607,372.557695 454.257549,367.14632 L453.696,366.976 L458.304,351.648 L459.030079,351.868611 C482.64141,359.116013 495.733902,370.353763 495.995987,383.594061 L496,384 C496,410.256 447.704,424 400,424 C393.128,424 386.264,423.68 379.512,423.112 C384.392,448.608 393.368,464 400,464 C404.34625,464 411.450139,455.946441 416.846172,438.265546 L417.016,437.704 L432.344,442.296 C425.048,466.608 413.56,480 400,480 C380.696,480 368.184,453.872 362.896,421.104 C330.12,415.816 304,403.304 304,384 C304,370.58352 317.117658,359.189966 340.969921,351.868611 L341.696,351.648 L346.304,366.976 C328.232,372.408 320,379.608 320,384 C320,390.632 335.392,399.608 360.888,404.488 C360.32,397.736 360,390.872 360,384 C360,336.296 373.736,288 400,288 Z M408,376 L408,392 L392,392 L392,376 L408,376 Z M104,304 L104,320 L88,320 L88,304 L104,304 Z M168,304 L168,320 L152,320 L152,304 L168,304 Z M320,192 L304,192 C299.67517,192 296.135838,195.457732 296.003818,199.751381 L296,200 L296,312 C296,316.332679 299.457732,319.864459 303.751381,319.996191 L304,320 L320,320 C324.32483,320 327.864162,316.549969 327.996182,312.249055 L328,312 L328,200 C328,195.592 324.408,192 320,192 Z M136,304 L136,320 L120,320 L120,304 L136,304 Z M280,208 L224,208 C213.721053,208 205.015859,214.53653 201.605578,223.634716 L201.472,224 L208,224 C221.09968,224 231.784394,234.553717 231.996778,247.603788 L232,248 L232,264 C232,277.09968 221.446283,287.784394 208.396212,287.996778 L208,288 L201.472,288 C204.740421,297.165789 213.353371,303.822922 223.58969,303.996523 L224,304 L280,304 L280,208 Z M208,240 L22.024,240 C18.9922857,249.835714 17.1879694,260.177265 16.4819351,270.816633 L16.408,272 L208,272 C212.32483,272 215.864162,268.549969 215.996182,264.249055 L216,264 L216,248 C216,243.592 212.408,240 208,240 Z M376,16 C356.022687,16 337.403894,21.7446024 321.543043,31.5514427 L320.824,32 L352,32 C365.232,32 376,42.768 376,56 C376,69.09968 365.446283,79.7843936 352.396212,79.9967779 L352,80 L336,80 C331.592,80 328,83.592 328,88 C328,92.3248302 331.457732,95.8641623 335.751381,95.9961824 L336,96 L352,96 C365.232,96 376,106.768 376,120 C376,133.09968 365.446283,143.784394 352.396212,143.996778 L352,144 L274.912,144 C277.968,156.824 283.376,169.024 291.024,179.872 C294.634286,177.534571 298.899184,176.104673 303.488731,176.005519 L304,176 L320,176 C333.09968,176 343.784394,186.553717 343.996778,199.603788 L344,200 L344,218.752 C354.456,222.168 365.184,224 376,224 C395.977313,224 414.596106,218.255398 430.456957,208.448557 L431.176,208 L384,208 C370.768,208 360,197.232 360,184 C360,170.90032 370.553717,160.215606 383.603788,160.003222 L384,160 L424,160 C428.408,160 432,156.408 432,152 C432,147.67517 428.542268,144.135838 424.248619,144.003818 L424,144 L416,144 C402.768,144 392,133.232 392,120 C392,106.90032 402.553717,96.2156064 415.603788,96.0032221 L416,96 L477.096,96 C466.216,50.208 425.072,16 376,16 Z M152,144 C97.53416,144 50.5484432,176.24137 28.8575392,222.591161 L28.208,224 L184.808,224 C188.4908,205.95032 204.366044,192.275806 223.421595,192.004121 L224,192 L255.624,192 C229.904,161.712 192.208,144 152,144 Z M168,192 L168,208 L152,208 L152,192 L168,192 Z M136,192 L136,208 L120,208 L120,192 L136,192 Z M104,192 L104,208 L88,208 L88,192 L104,192 Z M479.592,112 L416,112 C411.592,112 408,115.592 408,120 C408,124.32483 411.457732,127.864162 415.751381,127.996182 L416,128 L424,128 C437.232,128 448,138.768 448,152 C448,165.09968 437.446283,175.784394 424.396212,175.996778 L424,176 L384,176 C379.592,176 376,179.592 376,184 C376,188.32483 379.457732,191.864162 383.751381,191.996182 L384,192 L450.872,192 C468.864,173.296 480,147.944 480,120 C480,117.296 479.8,114.648 479.592,112 Z M352,48 L301.128,48 C283.136,66.704 272,92.056 272,120 C272,122.297143 272.105796,124.582531 272.267009,126.861201 L272.352,128 L352,128 C356.408,128 360,124.408 360,120 C360,115.67517 356.542268,112.135838 352.248619,112.003818 L352,112 L336,112 C322.768,112 312,101.232 312,88 C312,74.90032 322.553717,64.2156064 335.603788,64.0032221 L336,64 L352,64 C356.408,64 360,60.408 360,56 C360,51.592 356.408,48 352,48 Z M136,16 C113.944,16 96,33.944 96,56 C96,78.056 113.944,96 136,96 C158.056,96 176,78.056 176,56 C176,33.944 158.056,16 136,16 Z M136,32 C149.232,32 160,42.768 160,56 C160,69.232 149.232,80 136,80 C122.768,80 112,69.232 112,56 C112,42.768 122.768,32 136,32 Z M136,48 C131.592,48 128,51.592 128,56 C128,60.408 131.592,64 136,64 C140.408,64 144,60.408 144,56 C144,51.592 140.408,48 136,48 Z" id="path-2"></path>
    </defs>
    <g id="Page-1" stroke="none" stroke-width="1" fill="none" fill-rule="evenodd">
        <g id="augmented-reality" fill-rule="nonzero">
            <g id="Combined-Shape">
                <use fill="#000000" xlink:href="#path-2"></use>
                <use fill="url(#linearGradient-1)" xlink:href="#path-2"></use>
            </g>
        </g>
    </g>
</svg>