<?xml version="1.0" encoding="UTF-8"?>
<svg width="504px" height="512px" viewBox="0 0 504 512" version="1.1" xmlns="http://www.w3.org/2000/svg" xmlns:xlink="http://www.w3.org/1999/xlink">
    <!-- Generator: Sketch 58 (84663) - https://sketch.com -->
    <title>Combined Shape</title>
    <desc>Created with Sketch.</desc>
    <defs>
        <linearGradient x1="91.5009656%" y1="98.8885904%" x2="13.2001137%" y2="2.18506286%" id="linearGradient-1">
            <stop stop-color="#43C1FA" offset="0%"></stop>
            <stop stop-color="#18168F" offset="100%"></stop>
        </linearGradient>
    </defs>
    <g id="Page-1" stroke="none" stroke-width="1" fill="none" fill-rule="evenodd">
        <g id="virtual-glasses" fill="url(#linearGradient-1)" fill-rule="nonzero">
            <path d="M334.538,163.993 C357.74261,163.993 377.801099,180.0637 383.52883,201.880147 L383.698,202.543 L384.801,202.543 C413.09124,202.543 438.05012,217.019077 452.702161,238.942385 L453.143,239.609 L458.934,239.609 C483.26226,239.609 503.100682,259.204139 503.495018,283.44114 L503.501,284.177 L503.501,337.553 C503.501,361.88126 483.905861,381.718702 459.66983,382.113018 L458.934,382.119 L453.143,382.119 C438.69989,404.19105 413.879481,418.888828 385.657253,419.180576 L384.801,419.185 L321.952,419.185 C306.253511,419.185 291.613628,410.8316 283.617204,397.348357 L283.356,396.902 L267.092,368.732 C264.428,364.117 259.656,361.362 254.327,361.362 C249.116422,361.362 244.438364,363.995916 241.741771,368.427099 L241.561,368.732 L225.297,396.902 C217.447261,410.497598 202.89269,418.998776 187.218142,419.181978 L186.701,419.185 L151.778,419.185 L151.778,434.333 C151.778,438.476 148.42,441.833 144.278,441.833 C140.217216,441.833 136.909988,438.606356 136.781854,434.57578 L136.778,434.333 L136.778,405.563 L15.499,405.563 L15.499,497 L136.779,497 L136.779,469.332 C136.779,465.189 140.137,461.832 144.279,461.832 C148.339784,461.832 151.647012,465.058644 151.775146,469.08922 L151.779,469.332 L151.779,499.104 C151.779,506.111942 146.160466,511.831069 139.192282,511.995369 L138.884,511.999 L13.394,511.999 C6.38704348,511.999 0.666959462,506.380466 0.502631666,499.412282 L0.499,499.104 L0.499,403.457 C0.499,396.449058 6.11753392,390.729931 13.0857181,390.565631 L13.394,390.562 L61.826,390.562 C59.7931111,388.187778 57.8953333,385.695037 56.141797,383.09642 L55.491,382.117 L49.719,382.117 C25.39074,382.117 5.5532982,362.522841 5.15898219,338.28683 L5.153,337.551 L5.153,284.175 C5.153,259.84674 24.7471592,240.009298 48.98317,239.614982 L49.719,239.609 L55.51,239.609 C69.95311,217.53695 94.7735188,202.839172 122.995747,202.547424 L123.852,202.543 L124.955,202.543 C130.39208,180.61054 150.273874,164.321496 173.412834,163.997908 L174.115,163.993 L334.538,163.993 Z M61.3560919,418.177294 L61.67,418.352 L101.53,441.364 C105.061,443.402 107.256,447.202 107.256,451.279 C107.256,455.247757 105.178992,458.953337 101.813429,461.029765 L101.53,461.199 L61.672,484.211 C59.906,485.23 57.926,485.740001 55.946,485.740001 C53.966,485.741 51.986,485.232 50.22,484.212 C46.7824865,482.228108 44.6125727,478.576172 44.497791,474.624012 L44.493,474.294 L44.493,428.27 C44.493,424.192 46.687,420.392 50.219,418.353 C53.6461471,416.372029 57.8796817,416.313766 61.3560919,418.177294 Z M203.079,434.259 C208.903516,434.259 213.659358,438.920898 213.812209,444.709426 L213.816,444.995 L213.816,473.047 C213.816,478.871516 209.153134,483.627358 203.364575,483.779257 L203.079,483.783 L175.027,483.783 C169.202484,483.783 164.446642,479.121102 164.294743,473.332574 L164.291,473.047 L164.291,444.995 C164.291,439.170484 168.952898,434.414642 174.741426,434.262743 L175.027,434.259 L203.079,434.259 Z M198.815,449.259 L179.29,449.259 L179.29,468.783 L198.815,468.783 L198.815,449.259 Z M59.494,434.415 L59.494,468.147 L88.707,451.281 L59.494,434.415 Z M334.538,178.992 L174.115,178.992 C159.05908,178.992 145.883972,188.602861 140.758837,202.130867 L140.606,202.542 L289.666,202.542 C293.808,202.542 297.166,205.899 297.166,210.042 C297.166,214.103765 293.938395,217.410051 289.908723,217.538147 L289.666,217.542 L123.852,217.542 C87.47841,217.542 57.8175249,246.839149 57.2279446,283.074848 L57.219,284.175 L57.219,337.551 C57.219,358.94391 67.3620549,377.999282 83.0838782,390.195521 L83.562,390.563 L138.885,390.563 C145.891957,390.563 151.612041,396.181534 151.776368,403.149718 L151.78,403.458 L151.78,404.185 L186.703,404.185 C197.077162,404.185 206.754286,398.685393 212.072783,389.802017 L212.308,389.402 L228.572,361.232 C233.868941,352.058912 243.294714,346.52634 253.854429,346.365602 L254.328,346.362 L254.801614,346.3656 C265.202247,346.523848 274.501184,351.890578 279.839442,360.817468 L280.083,361.232 L296.347,389.402 C301.533588,398.385912 311.135395,404.017636 321.487963,404.181332 L321.952,404.185 L384.801,404.185 C421.17459,404.185 450.835475,374.887851 451.425055,338.652152 L451.434,337.552 L451.434,284.175 C451.434,247.80141 422.136851,218.140525 385.900182,217.550945 L384.8,217.542 L324.666,217.542 C320.524,217.542 317.166,214.185 317.166,210.042 C317.166,205.980235 320.393605,202.673949 324.423277,202.545853 L324.666,202.542 L368.047,202.542 C363.035,188.798 349.746,178.992 334.538,178.992 Z M460.898,254.681 C464.351091,263.558576 466.312847,273.175237 466.42857,283.231907 L466.434,284.176 L466.434,337.552 C466.434,347.951 464.459,357.892 460.898,367.047 C476.13509,366.04314 488.256442,353.450578 488.497345,338.020439 L488.501,337.552 L488.501,284.176 C488.501,268.532 476.289,255.695 460.898,254.681 Z M47.755,254.68 C32.51791,255.68485 20.3965579,268.276442 20.1556546,283.706561 L20.152,284.175 L20.152,337.551 C20.152,353.188 32.353,366.021 47.734,367.045 C44.2828485,358.170333 42.3390174,348.549059 42.2243786,338.494842 L42.219,337.551 L42.219,284.175 C42.219,273.776 44.194,263.835 47.755,254.68 Z M89.75,275.193 C93.8117647,275.193 97.1180507,278.420605 97.2461474,282.450277 L97.25,282.693 L97.25,339.034 C97.25,343.177 93.892,346.534 89.75,346.534 C85.6892157,346.534 82.3819877,343.307356 82.2538537,339.27678 L82.25,339.034 L82.25,282.693 C82.25,278.55 85.608,275.193 89.75,275.193 Z M418.902,275.193 C422.962784,275.193 426.270012,278.420605 426.398146,282.450277 L426.402,282.693 L426.402,339.034 C426.402,343.177 423.044,346.534 418.902,346.534 C414.841216,346.534 411.533988,343.307356 411.405854,339.27678 L411.402,339.034 L411.402,282.693 C411.402,278.55 414.76,275.193 418.902,275.193 Z M136.896668,241.824428 C140.056313,238.664783 145.179111,238.664783 148.338756,241.824428 C151.498401,244.984073 151.498401,250.106871 148.338756,253.266516 C145.179111,256.426161 140.056313,256.426161 136.896668,253.266516 C133.737023,250.106871 133.737023,244.984073 136.896668,241.824428 Z M122.447698,241.821486 C125.607343,244.981131 125.607343,250.103929 122.447698,253.263574 C119.288053,256.423219 114.165255,256.423219 111.00561,253.263574 C107.845965,250.103929 107.845965,244.981131 111.00561,241.821486 C114.165255,238.661841 119.288053,238.661841 122.447698,241.821486 Z M484.133,159.678 C489.9585,159.678 494.714358,164.339898 494.866257,170.128426 L494.87,170.414 L494.87,198.466 C494.87,204.290516 490.207134,209.046358 484.418575,209.198257 L484.133,209.202 L456.082,209.202 C450.2565,209.202 445.500642,204.540102 445.348743,198.751574 L445.345,198.466 L445.345,170.414 C445.345,164.589484 450.006898,159.833642 455.796378,159.681743 L456.082,159.678 L484.133,159.678 Z M479.87,174.678 L460.345,174.678 L460.345,194.202 L479.87,194.202 L479.87,174.678 Z M464.4,2.84217094e-14 C470.989621,2.84217094e-14 476.369744,5.28028007 476.531265,11.8307818 L476.535,12.134 L476.535,35 C476.535,39.143 473.176,42.5 469.034,42.5 C464.973216,42.5 461.665988,39.2733564 461.537854,35.2427799 L461.534,35 L461.534,15 L295.607,15 L295.607,119.108 L344.049,42.765 C345.985,39.713 349.299,37.89 352.915,37.89 C356.421424,37.89 359.643874,39.6041892 361.602146,42.4918595 L361.782,42.766 L400.791,104.245 L417.581,77.784 C419.517,74.732 422.831,72.91 426.447,72.91 C429.953424,72.91 433.175874,74.6232489 435.134146,77.5108622 L435.314,77.785 L461.535,119.108 L461.535,70.667 C461.535,66.524 464.893,63.167 469.035,63.167 C473.095784,63.167 476.403012,66.3936436 476.531146,70.4242201 L476.535,70.667 L476.535,133.486 C476.535,140.076606 471.25472,145.455774 464.704218,145.617266 L464.401,145.621 L292.742,145.621 C286.152379,145.621 280.773226,140.34169 280.611734,133.790262 L280.608,133.487 L280.608,12.134 C280.608,5.54437879 285.88731,0.165225895 292.438738,0.00373403108 L292.742,2.84217094e-14 L464.4,2.84217094e-14 Z M352.916,56.79 L306.068,130.621 L451.076,130.621 L426.448,91.808 L409.658,118.269 C407.778727,121.229485 404.605585,123.031505 401.119689,123.138 L400.792,123.143 L400.463225,123.137912 C397.085437,123.033862 394.002871,121.339485 392.105852,118.543047 L391.926,118.269 L352.916,56.79 Z M253.247,23.737 C259.0725,23.737 263.828358,28.398898 263.980257,34.1874256 L263.984,34.473 L263.984,62.525 C263.984,68.3495161 259.321134,73.105358 253.532575,73.257257 L253.247,73.261 L225.196,73.261 C219.371484,73.261 214.614674,68.598134 214.462744,62.8105276 L214.459,62.525 L214.459,34.473 C214.459,28.6484839 219.121866,23.892642 224.910425,23.740743 L225.196,23.737 L253.247,23.737 Z M413.437,21.375 C425.603,21.375 435.5,31.273 435.5,43.438 C435.5,55.603 425.604,65.501 413.438,65.501 C401.272,65.501 391.375,55.603 391.375,43.438 C391.375,31.272 401.271,21.375 413.437,21.375 Z M248.984,38.736 L229.459,38.736 L229.459,58.26 L248.984,58.26 L248.984,38.736 Z M413.437,36.375 C409.542,36.375 406.374,39.543 406.374,43.438 C406.374,47.333 409.542,50.501 413.437,50.501 C417.332,50.501 420.5,47.333 420.5,43.438 C420.5,39.543 417.332,36.375 413.437,36.375 Z" id="Combined-Shape"></path>
        </g>
    </g>
</svg>