<?xml version="1.0" encoding="UTF-8"?>
<svg width="480px" height="480px" viewBox="0 0 480 480" version="1.1" xmlns="http://www.w3.org/2000/svg" xmlns:xlink="http://www.w3.org/1999/xlink">
    <!-- Generator: Sketch 58 (84663) - https://sketch.com -->
    <title>Combined Shape</title>
    <desc>Created with Sketch.</desc>
    <defs>
        <linearGradient x1="92.9988661%" y1="98.8885904%" x2="11.8718899%" y2="2.18506286%" id="linearGradient-1">
            <stop stop-color="#43C1FA" offset="0%"></stop>
            <stop stop-color="#18168F" offset="100%"></stop>
        </linearGradient>
        <path d="M168,464 L168,480 L152,480 L152,464 L168,464 Z M448,0 L448,64 C447.9505,100.27855 420.961971,130.803913 385.089738,135.396781 L384,135.528 L384,151.592 C428.82522,147.46271 463.245698,110.225642 463.987843,65.361818 L464,64 L464,0 L480,0 L480,64 C479.91783,117.74116 438.952749,162.482062 385.619903,167.453554 L384,167.592 L384,185.6 L402.704,182.216 C423.572,178.41 443.574,192.241 447.38,213.108 C451.14794,233.76732 437.629856,253.577873 417.111889,257.664977 L416.488,257.784 L384,265.48 L384,287.944 C384,301.06645 373.468825,311.728849 360.396889,311.940785 L360,311.944 L307.136,311.944 C307.392,312.536 307.608,313.144 307.896,313.72 C309.565647,317.063059 311.734007,320.131516 314.325212,322.820323 L314.816,323.32 L370.464,378.984 L414.08,368.2 C414.5904,368.136 415.10464,368.1232 415.616576,368.1616 L416,368.2 L416,368 L448,368 C456.731798,368 463.829215,374.993468 463.996964,383.685114 L464,384 L464,437.4 C463.925,448.659 456.767,458.649 446.132,462.342 C432.39674,467.11083 417.408912,459.963604 412.435629,446.358254 L412.288,445.944 L368.408,463.496 C353.090469,469.645136 335.847378,468.692915 321.311806,460.918729 L320.768,460.624 L299.848,472.624 C278.13631,484.99108 250.893916,481.495242 233.011026,464.130449 L232.472,463.6 L190.928,422.064 C182.34875,413.480875 175.00172,403.752809 169.095104,393.156182 L168.528,392.128 L144.8,348.624 C140.219167,340.225167 136.531939,331.370806 133.799047,322.205259 L133.448,321.008 L56.408,325.32 C28.28,325.32 12.312,311.64 12.1426767,287.72 C11.9915268,269.24561 25.0282856,253.31752 43.1066364,249.775532 L43.656,249.672 L113.208,235.464 C81.57,212.315 63.205,175.195 64,136 C64,60.64 123.2,8 208,8 C268.984,8 316.63864,35.325188 338.621717,78.6812836 L339.28,80 L360,80 C373.12245,80 383.784849,90.5311745 383.996785,103.603111 L384,104 L384,119.36 C411.24183,115.40693 431.537691,92.2742831 431.99231,64.8328618 L432,64 L432,0 L448,0 Z M288,244.8 C263.377,257.838 235.858,264.443 208,264 C186.50875,264.180714 165.175695,260.352532 145.094111,252.716297 L144,252.296 L144,282.912 C144.01181,302.872063 148.942661,322.516394 158.349347,340.11029 L158.808,340.96 L182.528,384.504 C187.6262,393.834267 193.983097,402.416043 201.418934,410.009956 L202.192,410.792 L243.736,452.328 C256.38424,464.91288 275.808891,467.604631 291.38518,458.992437 L291.856,458.728 L306.936,450.112 L250.344,393.52 L261.648,382.232 L319.248,439.832 C330.448104,451.031115 347.187968,454.556629 361.934976,448.862869 L362.4,448.68 L408,430.448 L408,386.216 L383.68,392.232 L389.656,398.208 L378.344,409.52 L303.504,334.648 C293.725439,324.881258 288.167029,311.680005 288.003703,297.877457 L288,297.24 L288,244.8 Z M48,440 L48,456 L32,456 L32,440 L48,440 Z M448,384 L424,384 L424,430.696 L427.352,440.76 C428.8,445.071 432.837,447.977 437.384,447.984013 C443.142033,447.992853 447.834868,443.408101 447.995749,437.686987 L448,437.4 L448,384 Z M112,408 L112,424 L96,424 L96,408 L112,408 Z M128,392 L128,408 L112,408 L112,392 L128,392 Z M96,392 L96,408 L80,408 L80,392 L96,392 Z M112,376 L112,392 L96,392 L96,376 L112,376 Z M16,336 L16,352 L0,352 L0,336 L16,336 Z M240,280 C253.12245,280 263.784849,290.531175 263.996785,303.603111 L264,304 L264,328 C264,341.12245 253.468826,351.784849 240.396889,351.996785 L240,352 L192,352 C178.87755,352 168.215151,341.468825 168.003215,328.396889 L168,328 L168,304 C168,290.87755 178.531175,280.215151 191.603111,280.003215 L192,280 L240,280 Z M240,296 L192,296 C187.665358,296 184.135467,299.448105 184.003807,303.750836 L184,304 L184,328 C184,332.334642 187.448105,335.864533 191.750836,335.996193 L192,336 L240,336 C244.334642,336 247.864533,332.551895 247.996193,328.249164 L248,328 L248,304 C248,299.582 244.418,296 240,296 Z M464,312 L464,328 L448,328 L448,312 L464,312 Z M448,296 L448,312 L432,312 L432,296 L448,296 Z M480,296 L480,312 L464,312 L464,296 L480,296 Z M83.944,257.776 L46.696,265.384 C35.91,267.265 28.063,276.667 28.1433787,287.616 C28.1994338,296.85864 31.1402943,309.119988 55.2625211,309.364291 L56,309.368 L108.272,306.44 L83.944,257.776 Z M128,248.8 L100.176,254.464 L125.68,305.464 L129.896,305.248 C128.7335,298.335813 128.103617,291.345402 128.011295,284.337744 L128,282.936 L128,248.8 Z M464,280 L464,296 L448,296 L448,280 L464,280 Z M368,269.232 L304,284.432 L304,296 L360,296 C364.334642,296 367.864533,292.551895 367.996193,288.249164 L368,288 L368,269.232 Z M338.736,210.144 L326.536,212.368 C320.255607,220.401464 312.985857,227.608295 304.901594,233.81813 L304,234.504 L304,268 L314.088,265.6 L338.736,210.144 Z M405.96572,197.899929 L405.6,197.96 L357.792,206.672 L333.664,260.96 L413.224,242.128 C425.421,240.023 433.601,228.429 431.496,216.232 C429.41205,204.15697 418.027931,196.019002 405.96572,197.899929 Z M208,24 C132.632,24 80,70.056 80,136 C80,201.944 132.632,248 208,248 C283.368,248 336,201.944 336,136 C336,70.056 283.368,24 208,24 Z M184,40 C237.019,40 280,82.981 280,136 C279.943,188.996 236.996,231.943 184,232 C130.981,232 88,189.019 88,136 C88,82.981 130.981,40 184,40 Z M176,112 C145.344,112 114.008,132.8 104.192,139.864 C106.252,182.457 141.357,215.947 184,216 C226.349,215.948 261.32,182.902 263.768,140.624 C250.352,133.496 207.352,112 176,112 Z M360,96 L345.896,96 C350.005,108.933 352.065,122.43 352,136 C352.152459,155.809836 347.610696,175.368127 338.750602,193.076148 L338.304,193.96 L368,188.544 L368,104 C368,99.582 364.418,96 360,96 Z M16,152 L16,168 L0,168 L0,152 L16,152 Z M312,120 L312,160 L296,160 L296,120 L312,120 Z M184,56 C146.162,56.051 113.518,82.568 105.712,119.592 C121.664,109.64 148.512,96 176,96 C205.952,96 243.2,112.36 262.704,122.072 C255.925,83.898 222.771,56.065 184,56 Z M32,32 L32,48 L16,48 L16,32 L32,32 Z M16,16 L16,32 L0,32 L0,16 L16,16 Z M48,16 L48,32 L32,32 L32,16 L48,16 Z M32,0 L32,16 L16,16 L16,0 L32,0 Z" id="path-2"></path>
    </defs>
    <g id="Page-1" stroke="none" stroke-width="1" fill="none" fill-rule="evenodd">
        <g id="astronaut" fill-rule="nonzero">
            <g id="Combined-Shape">
                <use fill="#000000" xlink:href="#path-2"></use>
                <use fill="url(#linearGradient-1)" xlink:href="#path-2"></use>
            </g>
        </g>
    </g>
</svg>