<?xml version="1.0" encoding="UTF-8"?>
<svg width="481px" height="480px" viewBox="0 0 481 480" version="1.1" xmlns="http://www.w3.org/2000/svg" xmlns:xlink="http://www.w3.org/1999/xlink">
    <!-- Generator: Sketch 58 (84663) - https://sketch.com -->
    <title>Combined Shape</title>
    <desc>Created with Sketch.</desc>
    <defs>
        <linearGradient x1="92.9988661%" y1="98.8651552%" x2="11.8718899%" y2="2.20798333%" id="linearGradient-1">
            <stop stop-color="#43C1FA" offset="0%"></stop>
            <stop stop-color="#18168F" offset="100%"></stop>
        </linearGradient>
    </defs>
    <g id="Page-1" stroke="none" stroke-width="1" fill="none" fill-rule="evenodd">
        <g id="planet" transform="translate(0.000000, -1.000000)" fill="url(#linearGradient-1)" fill-rule="nonzero">
            <path d="M401,353 C436.346224,353 465,381.653776 465,417 C465,452.346224 436.346224,481 401,481 C365.653776,481 337,452.346224 337,417 C337.039679,381.670225 365.670225,353.039679 401,353 Z M413.672,436.272 L408.592,451.52 C408.00145,453.289533 406.812285,454.793841 405.234522,455.777008 L404.968,455.936 L390.992,463.936 C394.281498,464.640391 397.635932,464.997017 401,465 C416.656524,464.986213 431.310213,457.338588 440.277059,444.531659 L440.584,444.088 L423.512,440.848 C422.907833,440.736592 422.319093,440.555342 421.757561,440.308177 L421.424,440.152 L413.672,436.272 Z M297,449 L297,465 L281,465 L281,449 L297,449 Z M233,441 L233,457 L217,457 L217,441 L233,441 Z M407.792,401.832 L391.304,407.328 L384.568,427.528 C383.639479,430.315342 381.261443,432.361901 378.38399,432.875144 L378.104,432.92 L356.888,435.944 C360.248226,443.689398 365.581692,450.413024 372.350637,455.446171 L372.888,455.84 L394.352,443.568 L401.384,422.472 C402.114431,420.261684 403.771394,418.479149 405.922564,417.589487 C407.980204,416.738506 410.294779,416.785185 412.310967,417.708642 L412.584,417.84 L427.592,425.344 L447.4,429.104 C449.146005,422.650162 449.461162,415.895788 448.327058,409.312659 L448.2,408.608 L437.336,415.696 C434.741837,417.387563 431.413366,417.425664 428.78784,415.816834 L428.536,415.656 L407.792,401.832 Z M153,425 L153,441 L137,441 L137,425 L153,425 Z M249,425 L249,441 L233,441 L233,425 L249,425 Z M217,425 L217,441 L201,441 L201,425 L217,425 Z M233,409 L233,425 L217,425 L217,409 L233,409 Z M401,369 C374.501299,369.026459 353.026459,390.501299 353,417 C353,417.896 353.05632,418.77664 353.115712,419.658304 L353.16,420.32 L370.968,417.776 L377.368,398.472 C378.133401,396.172498 379.89777,394.349125 382.158377,393.504611 L382.432,393.408 L406.432,385.408 C408.677045,384.66049 411.132329,384.946592 413.140636,386.178025 L413.4,386.344 L433,399.416 L442.6,393.168 C434.062949,378.242536 418.19448,369.023567 401,369 Z M323.336,96.072 C381,80.288 436.2,70.6 455.712,100.648 C474.808,130.104 455.096,186.712 400.352,245.856 C396.512032,294.628686 370.525503,338.949493 329.839009,366.118029 C289.152514,393.286566 238.256676,400.304205 191.736,385.16 C174.078131,392.430097 155.977976,398.575706 137.544,403.56 C119.127826,408.754287 100.129703,411.603468 81,412.04 C54.6,412.04 36.064,404.44 26.288,389.352 C4.2,355.344 37.992,292.832 81.624,245.248 C81.312,241.192 81,237.136 81,233 C80.8792544,175.308053 111.890649,122.03816 162.119176,93.6573504 C212.347704,65.2765412 273.979968,66.1996479 323.336,96.072 Z M84.512,266.176 C45.448,312.288 26.312,359.976 39.712,380.648 C51,398.048 85.168,400.76 133.464,388.08 C145.256,385 157.64,381 170.36,376.344 C126.421957,354.657792 94.803041,314.081508 84.512,266.176 Z M381.24,265.216 C356.601077,288.474199 329.857094,309.395888 301.352,327.712 C274.073801,345.389265 245.563389,361.088172 216.04,374.688 C224.277138,376.181565 232.62867,376.955152 241,377 C308.054376,376.886599 366.177863,330.556907 381.24,265.216 Z M378.304,245.224 C362.113752,245.507803 346.587471,251.70864 334.656,262.656 C307.256,290.064 295.28,290.664 268.408,289.52 C262.84,289.28 256.504,289 249,289 C224.016,289 216.912,295.576 210.04,301.928 C203.679539,309.055553 194.552442,313.091305 185,313 C174.465614,312.785667 163.989991,311.371203 153.776,308.784 C142.328128,305.032456 130.013615,304.828887 118.448,308.2 C135.406003,335.760509 161.123095,356.832242 191.48,368.04 C226.713356,353.123377 260.566462,335.136739 292.648,314.288 C323.53323,294.320732 352.241883,271.17309 378.304,245.224 Z M193,329 L193,345 L177,345 L177,329 L193,329 Z M441,265 C445.418278,265 449,268.581722 449,273 C449,286.254834 459.745166,297 473,297 C477.418278,297 481,300.581722 481,305 C481,309.418278 477.418278,313 473,313 C459.745166,313 449,323.745166 449,337 C449,341.418278 445.418278,345 441,345 C436.581722,345 433,341.418278 433,337 C433,323.745166 422.254834,313 409,313 C404.581722,313 401,309.418278 401,305 C401,300.581722 404.581722,297 409,297 C422.254834,297 433,286.254834 433,273 C433,268.581722 436.581722,265 441,265 Z M233,313 L233,329 L217,329 L217,313 L233,313 Z M441,296.752 C438.669509,299.890493 435.890493,302.669509 432.752,305 C435.890493,307.330491 438.669509,310.109507 441,313.248 C443.330491,310.109507 446.109507,307.330491 449.248,305 C446.109507,302.669509 443.330491,299.890493 441,296.752 Z M382.24,205.12 C370.000898,207.73984 357.516291,209.0406 345,209 C323.56,209 318.216,216.344 310.816,226.512 C300.928,240.096 288.632,257 241,257 C194.805505,258.371884 148.997473,265.869358 104.776,279.296 C106.487032,284.301987 108.476808,289.208321 110.736,293.992 C125.737178,288.717235 142.042185,288.436598 157.216,293.192 C166.303141,295.509921 175.624301,296.787455 185,297 C190.528645,297.068368 195.770923,294.546391 199.168,290.184 C207.008,282.936 217.752,273 249,273 C256.768,273 263.336,273.288 269.104,273.536 C292.672,274.544 299.816,274.864 323.344,251.344 C340.056657,236.046563 362.166198,228.022429 384.8,229.04 C384.613549,221.009336 383.757244,213.008238 382.24,205.12 Z M364.36,159.112 C356.097495,162.454353 347.403079,164.609103 338.536,165.512 C325.383328,166.935517 312.556797,170.525324 300.576,176.136 C291.151516,180.860484 283.181666,188.048 277.512,196.936 C270.215216,210.09174 256.017247,217.893779 241,217 C179.56,217 148.872,224.288 97.232,237.544 C97.4800648,246.407715 98.5486295,255.229399 100.424,263.896 C146.061791,250.071592 193.334087,242.372223 241,241 C280.488,241 288.936,229.392 297.88,217.096 C306.104,205.8 315.4,193 345,193 C356.183875,193.049003 367.341687,191.917401 378.288,189.624 C374.860172,178.941468 370.18526,168.700161 364.36,159.112 Z M340.64,108.032 C375.490829,135.79579 397.158185,176.85675 400.408,221.296 C439.088,175.92 457.408,132.672 442.288,109.352 C429.472,89.6 381.88,97.536 340.64,108.032 Z M329.536,119.672 C312.624,130.328 284.416,145 257,145 C240.072,145 234.48,153.048 227.4,163.232 C220.672,172.928 212.296,185 193,185 C169.663128,185.265881 146.551465,189.600164 124.704,197.808 C116.548402,200.672816 108.229733,203.050342 99.792,204.928 C98.7644453,210.216143 98.0352926,215.557921 97.608,220.928 C144.173023,207.306075 192.48514,200.591866 241,201 C254.736,201 258.032,196.488 264.64,187.504 C271.796066,176.54828 281.735325,167.691296 293.44,161.84 C306.910456,155.476843 321.339219,151.381756 336.144,149.72 C342.599227,148.958854 348.961774,147.551804 355.136,145.52 C347.720299,135.864614 339.119446,127.18044 329.536,119.672 Z M41,113 C45.418278,113 49,116.581722 49,121 C49,134.254834 59.745166,145 73,145 C77.418278,145 81,148.581722 81,153 C81,157.418278 77.418278,161 73,161 C59.745166,161 49,171.745166 49,185 C49,189.418278 45.418278,193 41,193 C36.581722,193 33,189.418278 33,185 C33,171.745166 22.254834,161 9,161 C4.581722,161 1,157.418278 1,153 C1,148.581722 4.581722,145 9,145 C22.254834,145 33,134.254834 33,121 C33,116.581722 36.581722,113 41,113 Z M241,89 C179.117336,89.0942534 124.197442,128.670445 104.528,187.344 C109.288,186.008 114.304,184.376 119.688,182.6 C143.158049,173.872309 167.961184,169.271116 193,169 C203.44,169 207.472,163.896 214.264,154.104 C222.032,142.92 231.696,129 257,129 C277.528607,127.570157 297.371002,121.01562 314.712,109.936 C314.576,109.768 314.528,109.528 314.408,109.344 C292.230371,96.0450256 266.859423,89.0138224 241,89 Z M41,144.752 C38.6695094,147.890493 35.8904931,150.669509 32.752,153 C35.8904931,155.330491 38.6695094,158.109507 41,161.248 C43.3304906,158.109507 46.1095069,155.330491 49.248,153 C46.1095069,150.669509 43.3304906,147.890493 41,144.752 Z M177,137 L177,153 L161,153 L161,137 L177,137 Z M209,113 L209,129 L193,129 L193,113 L209,113 Z M91.1165717,4.34752512 C109.451832,11.5921977 121.480484,29.3254188 121.432,49.04 C121.432,50.32 121.336,51.576 121.24,52.832 C132.92,61.416 142.08,71.232 136.832,84.032 C135.354259,87.6245187 132.410812,90.4136599 128.744,91.696 C126.357837,92.6402537 123.8053,93.091982 121.24,93.024 C114.096953,92.6698932 107.051351,91.2154391 100.352,88.712 C86.303332,98.2567073 68.2537943,99.6578276 52.9004564,92.3954916 C37.5471185,85.1331556 27.1808753,70.2909875 25.648,53.376 C7.216,42.72 -2.632,33.36 2.024,21.976 C5.48,13.536 16.256,11.856 38.44,16.248 C51.8801349,1.82476049 72.7813111,-2.89714745 91.1165717,4.34752512 Z M45.248,63.832 C50.7248119,74.3451839 61.577862,80.9562102 73.432,81 C75.4196376,80.9834236 77.4014557,80.7825637 79.352,80.4 C74.3208,78.1656 68.93582,75.6785 62.819815,72.643763 L61.848,72.16 L57.6,70.032 C53.296,67.888 49.184,65.832 45.248,63.832 Z M116.68,69.672 C115.689891,71.777629 114.545438,73.8071625 113.256,75.744 C116.158105,76.5545223 119.163486,76.9345749 122.176,76.872 C122.04,75.136 120.072,72.672 116.68,69.672 Z M329,57 L329,73 L313,73 L313,57 L329,57 Z M73.432,16.9996937 C57.7096193,17.0503821 44.3529702,28.514924 41.92,44.048 C48.9461333,47.7962667 56.4600889,51.5933156 63.284589,54.9903502 L64.736,55.712 L69,57.84 C80.56,63.608 89.728,67.656 97,70.48 C105.598241,61.1573853 107.851128,47.6241586 102.736784,36.0187989 C97.6224399,24.4134392 86.1141851,16.9445841 73.432,16.9996937 Z M249,41 L249,57 L233,57 L233,41 L249,41 Z M177,33 L177,49 L161,49 L161,33 L177,33 Z M233,25 L233,41 L217,41 L217,25 L233,25 Z M265,25 L265,41 L249,41 L249,25 L265,25 Z M19.288,29.8 C21.7803318,32.0056896 24.4627727,33.9867338 27.304,35.72 C27.7815338,34.0536568 28.3476725,32.413991 29,30.808 C25.7875452,30.2647184 22.5435537,29.9280273 19.288,29.8 Z M249,9 L249,25 L233,25 L233,9 L249,9 Z" id="Combined-Shape"></path>
        </g>
    </g>
</svg>